HIERARCHY
ROOT Root
{
  OFFSET 0.0 0.0 0.0
  CHANNELS 6 Xposition Yposition Zposition Zrotation Yrotation Xrotation
  JOINT Hips
  {
    OFFSET 0.0 100.0 0.0
    CHANNELS 6 Xposition Yposition Zposition Zrotation Yrotation Xrotation
    JOINT Spine1
    {
      OFFSET -0.013727 5.003763 -0.053727
      CHANNELS 3 Zrotation Yrotation Xrotation
      JOINT Spine2
      {
        OFFSET -0.0 7.125301 -0.029825
        CHANNELS 3 Zrotation Yrotation Xrotation
        JOINT Chest
        {
          OFFSET -1e-06 7.550063 -0.815971
          CHANNELS 3 Zrotation Yrotation Xrotation
          JOINT Neck1
          {
            OFFSET -0.181677 26.311295 -0.553348
            CHANNELS 3 Zrotation Yrotation Xrotation
            JOINT Neck2
            {
              OFFSET -3e-06 7.709397 2.302585
              CHANNELS 3 Zrotation Yrotation Xrotation
              JOINT Head
              {
                OFFSET -5e-06 6.128916 1.953709
                CHANNELS 3 Zrotation Yrotation Xrotation
                JOINT HeadEnd
                {
                  OFFSET 0.003598 16.065403 -1.835379
                  CHANNELS 3 Zrotation Yrotation Xrotation
                }
                JOINT Jaw
                {
                  OFFSET 0.002637 0.475592 3.094941
                  CHANNELS 3 Zrotation Yrotation Xrotation
                }
                JOINT LeftEye
                {
                  OFFSET 3.206381 5.380205 7.586883
                  CHANNELS 3 Zrotation Yrotation Xrotation
                }
                JOINT RightEye
                {
                  OFFSET -3.22244 5.361869 7.558234
                  CHANNELS 3 Zrotation Yrotation Xrotation
                }
              }
            }
          }
          JOINT LeftShoulder
          {
            OFFSET 1.621652 23.237164 5.113413
            CHANNELS 3 Zrotation Yrotation Xrotation
            JOINT LeftArm
            {
              OFFSET 14.919846 2e-06 -5.502326
              CHANNELS 3 Zrotation Yrotation Xrotation
              JOINT LeftForeArm
              {
                OFFSET 28.739307 0.0 -0.002588
                CHANNELS 3 Zrotation Yrotation Xrotation
                JOINT LeftHand
                {
                  OFFSET 27.093981 -1e-06 0.002609
                  CHANNELS 3 Zrotation Yrotation Xrotation
                  JOINT LeftHandThumb1
                  {
                    OFFSET 2.276482 -1.392045 3.191413
                    CHANNELS 3 Zrotation Yrotation Xrotation
                    JOINT LeftHandThumb2
                    {
                      OFFSET 4.012836 -1.828127 1.641654
                      CHANNELS 3 Zrotation Yrotation Xrotation
                      JOINT LeftHandThumb3
                      {
                        OFFSET 2.798515 0.0 -3e-06
                        CHANNELS 3 Zrotation Yrotation Xrotation
                        JOINT LeftHandThumbEnd
                        {
                          OFFSET 3.180793 -4e-06 4e-06
                          CHANNELS 3 Zrotation Yrotation Xrotation
                        }
                      }
                    }
                  }
                  JOINT LeftHandIndex1
                  {
                    OFFSET 3.247555 -0.531998 2.296169
                    CHANNELS 3 Zrotation Yrotation Xrotation
                    JOINT LeftHandIndex2
                    {
                      OFFSET 6.364578 0.01206 0.1786
                      CHANNELS 3 Zrotation Yrotation Xrotation
                      JOINT LeftHandIndex3
                      {
                        OFFSET 3.662364 0.0 0.0
                        CHANNELS 3 Zrotation Yrotation Xrotation
                        JOINT LeftHandIndex4
                        {
                          OFFSET 2.329242 4e-06 4e-06
                          CHANNELS 3 Zrotation Yrotation Xrotation
                          JOINT LeftHandIndexEnd
                          {
                            OFFSET 2.759615 -0.180537 -0.113024
                            CHANNELS 3 Zrotation Yrotation Xrotation
                          }
                        }
                      }
                    }
                  }
                  JOINT LeftHandMiddle1
                  {
                    OFFSET 3.163495 0.240981 1.000332
                    CHANNELS 3 Zrotation Yrotation Xrotation
                    JOINT LeftHandMiddle2
                    {
                      OFFSET 6.19078 -0.259278 -1.002548
                      CHANNELS 3 Zrotation Yrotation Xrotation
                      JOINT LeftHandMiddle3
                      {
                        OFFSET 4.35652 -4e-06 -1e-06
                        CHANNELS 3 Zrotation Yrotation Xrotation
                        JOINT LeftHandMiddle4
                        {
                          OFFSET 2.996877 -8e-06 0.0
                          CHANNELS 3 Zrotation Yrotation Xrotation
                          JOINT LeftHandMiddleEnd
                          {
                            OFFSET 2.304287 -0.294569 -0.031741
                            CHANNELS 3 Zrotation Yrotation Xrotation
                          }
                        }
                      }
                    }
                  }
                  JOINT LeftHandRing1
                  {
                    OFFSET 2.882643 -0.053652 -0.322543
                    CHANNELS 3 Zrotation Yrotation Xrotation
                    JOINT LeftHandRing2
                    {
                      OFFSET 5.854541 -0.486202 -1.373841
                      CHANNELS 3 Zrotation Yrotation Xrotation
                      JOINT LeftHandRing3
                      {
                        OFFSET 4.350578 0.0 3e-06
                        CHANNELS 3 Zrotation Yrotation Xrotation
                        JOINT LeftHandRing4
                        {
                          OFFSET 2.651321 7e-06 2e-06
                          CHANNELS 3 Zrotation Yrotation Xrotation
                          JOINT LeftHandRingEnd
                          {
                            OFFSET 1.936105 0.077687 -7.1e-05
                            CHANNELS 3 Zrotation Yrotation Xrotation
                          }
                        }
                      }
                    }
                  }
                  JOINT LeftHandPinky1
                  {
                    OFFSET 2.8655 -0.310005 -1.600378
                    CHANNELS 3 Zrotation Yrotation Xrotation
                    JOINT LeftHandPinky2
                    {
                      OFFSET 5.087849 -1.331141 -1.77123
                      CHANNELS 3 Zrotation Yrotation Xrotation
                      JOINT LeftHandPinky3
                      {
                        OFFSET 3.070974 4e-06 0.0
                        CHANNELS 3 Zrotation Yrotation Xrotation
                        JOINT LeftHandPinky4
                        {
                          OFFSET 1.549672 0.0 1e-06
                          CHANNELS 3 Zrotation Yrotation Xrotation
                          JOINT LeftHandPinkyEnd
                          {
                            OFFSET 1.944893 -0.157802 0.057219
                            CHANNELS 3 Zrotation Yrotation Xrotation
                          }
                        }
                      }
                    }
                  }
                }
              }
            }
          }
          JOINT RightShoulder
          {
            OFFSET -1.380118 23.180309 5.214158
            CHANNELS 3 Zrotation Yrotation Xrotation
            JOINT RightArm
            {
              OFFSET -15.037196 1.2e-05 -5.545604
              CHANNELS 3 Zrotation Yrotation Xrotation
              JOINT RightForeArm
              {
                OFFSET -28.736639 2e-06 -0.002597
                CHANNELS 3 Zrotation Yrotation Xrotation
                JOINT RightHand
                {
                  OFFSET -27.133619 -0.0 0.002613
                  CHANNELS 3 Zrotation Yrotation Xrotation
                  JOINT RightHandThumb1
                  {
                    OFFSET -2.274032 -1.383988 3.163127
                    CHANNELS 3 Zrotation Yrotation Xrotation
                    JOINT RightHandThumb2
                    {
                      OFFSET -4.011429 -1.827466 1.640914
                      CHANNELS 3 Zrotation Yrotation Xrotation
                      JOINT RightHandThumb3
                      {
                        OFFSET -2.794935 -4e-06 -3e-06
                        CHANNELS 3 Zrotation Yrotation Xrotation
                        JOINT RightHandThumbEnd
                        {
                          OFFSET -3.183852 4e-06 1e-06
                          CHANNELS 3 Zrotation Yrotation Xrotation
                        }
                      }
                    }
                  }
                  JOINT RightHandIndex1
                  {
                    OFFSET -3.253266 -0.520057 2.282866
                    CHANNELS 3 Zrotation Yrotation Xrotation
                    JOINT RightHandIndex2
                    {
                      OFFSET -6.341917 0.012471 0.178266
                      CHANNELS 3 Zrotation Yrotation Xrotation
                      JOINT RightHandIndex3
                      {
                        OFFSET -3.654871 -8e-06 -0.0
                        CHANNELS 3 Zrotation Yrotation Xrotation
                        JOINT RightHandIndex4
                        {
                          OFFSET -2.327586 0.0 1e-06
                          CHANNELS 3 Zrotation Yrotation Xrotation
                          JOINT RightHandIndexEnd
                          {
                            OFFSET -2.76179 -0.180656 -0.113078
                            CHANNELS 3 Zrotation Yrotation Xrotation
                          }
                        }
                      }
                    }
                  }
                  JOINT RightHandMiddle1
                  {
                    OFFSET -3.168106 0.246593 1.00103
                    CHANNELS 3 Zrotation Yrotation Xrotation
                    JOINT RightHandMiddle2
                    {
                      OFFSET -6.180828 -0.258836 -1.000895
                      CHANNELS 3 Zrotation Yrotation Xrotation
                      JOINT RightHandMiddle3
                      {
                        OFFSET -4.348901 0.0 -0.0
                        CHANNELS 3 Zrotation Yrotation Xrotation
                        JOINT RightHandMiddle4
                        {
                          OFFSET -3.00024 -4e-06 -2e-06
                          CHANNELS 3 Zrotation Yrotation Xrotation
                          JOINT RightHandMiddleEnd
                          {
                            OFFSET -2.30252 -0.29437 -0.031706
                            CHANNELS 3 Zrotation Yrotation Xrotation
                          }
                        }
                      }
                    }
                  }
                  JOINT RightHandRing1
                  {
                    OFFSET -2.88569 -0.067952 -0.308858
                    CHANNELS 3 Zrotation Yrotation Xrotation
                    JOINT RightHandRing2
                    {
                      OFFSET -5.854198 -0.48613 -1.373731
                      CHANNELS 3 Zrotation Yrotation Xrotation
                      JOINT RightHandRing3
                      {
                        OFFSET -4.33881 -4e-06 -0.0
                        CHANNELS 3 Zrotation Yrotation Xrotation
                        JOINT RightHandRing4
                        {
                          OFFSET -2.654903 -4e-06 4e-06
                          CHANNELS 3 Zrotation Yrotation Xrotation
                          JOINT RightHandRingEnd
                          {
                            OFFSET -1.933568 0.077527 -5.2e-05
                            CHANNELS 3 Zrotation Yrotation Xrotation
                          }
                        }
                      }
                    }
                  }
                  JOINT RightHandPinky1
                  {
                    OFFSET -2.866425 -0.342796 -1.584145
                    CHANNELS 3 Zrotation Yrotation Xrotation
                    JOINT RightHandPinky2
                    {
                      OFFSET -5.091371 -1.332055 -1.772385
                      CHANNELS 3 Zrotation Yrotation Xrotation
                      JOINT RightHandPinky3
                      {
                        OFFSET -3.062664 -4e-06 1e-06
                        CHANNELS 3 Zrotation Yrotation Xrotation
                        JOINT RightHandPinky4
                        {
                          OFFSET -1.546529 4e-06 -2e-06
                          CHANNELS 3 Zrotation Yrotation Xrotation
                          JOINT RightHandPinkyEnd
                          {
                            OFFSET -1.945119 -0.157718 0.057211
                            CHANNELS 3 Zrotation Yrotation Xrotation
                          }
                        }
                      }
                    }
                  }
                }
              }
            }
          }
        }
      }
    }
    JOINT LeftLeg
    {
      OFFSET 10.043214 -8.434526 2.595655
      CHANNELS 3 Zrotation Yrotation Xrotation
      JOINT LeftShin
      {
        OFFSET -1e-06 -43.221752 -0.802913
        CHANNELS 3 Zrotation Yrotation Xrotation
        JOINT LeftFoot
        {
          OFFSET 1e-06 -42.155094 -3.481523
          CHANNELS 3 Zrotation Yrotation Xrotation
          JOINT LeftToeBase
          {
            OFFSET 0.0 -5.059472 13.231529
            CHANNELS 3 Zrotation Yrotation Xrotation
            JOINT LeftToeEnd
            {
              OFFSET -0.009607 -1.647619 6.513017
              CHANNELS 3 Zrotation Yrotation Xrotation
            }
          }
        }
      }
    }
    JOINT RightLeg
    {
      OFFSET -10.047278 -8.29526 2.620317
      CHANNELS 3 Zrotation Yrotation Xrotation
      JOINT RightShin
      {
        OFFSET 1e-06 -43.362206 -0.805556
        CHANNELS 3 Zrotation Yrotation Xrotation
        JOINT RightFoot
        {
          OFFSET 2e-06 -42.117393 -3.478398
          CHANNELS 3 Zrotation Yrotation Xrotation
          JOINT RightToeBase
          {
            OFFSET -0.0 -5.079609 13.284196
            CHANNELS 3 Zrotation Yrotation Xrotation
            JOINT RightToeEnd
            {
              OFFSET 0.009532 -1.634378 6.460591
              CHANNELS 3 Zrotation Yrotation Xrotation
            }
          }
        }
      }
    }
  }
}
MOTION
Frames: 5
Frame Time: 0.03333333333333333
0.0 0.0 0.0 0.0 -0.0 0.0 -0.257554 98.709068 0.014395 -1.008349 -0.362289 -5.769621 -0.858299 0.241856 -0.016003 -0.824187 0.183496 -4.806362 -0.851855 -1.494415 10.571328 17.306366 -4.074427 5.39908 -0.631569 0.132277 -3.838178 6.161376 -2.523733 -5.302465 7.6e-05 -2.3e-05 6e-06 -0.079714 0.075769 -0.018715 0.668375 -3.61919 -10.705884 -0.81488 3.768839 -10.744697 -16.829962 -5.801783 14.924294 -53.304836 -13.159024 32.739498 0.274829 -24.49478 -0.027954 -3.498427 -2.871735 -4.749706 -5.88211 9.861289 0.70259 -10.936875 -0.360575 7.156204 -1e-06 8.774828 -1e-06 -15.901668 18.278801 6.060636 -1.844033 2.498506 -2.507276 -10.163604 4.678946 4.621109 -20.976032 -0.0 2e-06 -21.226299 2.451699 -3.594005 1e-06 -5e-06 -2e-06 -1.362683 2.240799 -0.746322 -21.334925 0.584912 3.008321 -13.82122 -2e-06 -1e-06 -23.887178 -0.249079 -0.839484 -59.749043 2.427389 -1.456309 -0.294025 1.679688 0.833257 -14.218214 0.093217 1.300581 -34.212067 -0.287563 0.967165 -20.033226 0.964535 1.212841 1e-06 1e-06 1e-06 -3.440389 0.788234 0.501656 -15.928192 -3.167309 2.999705 -6.338828 0.0 -1e-06 -18.123455 3.648182 -4.905674 -2e-06 1e-06 -2e-06 16.776049 9.637856 15.43758 49.179855 5.562313 -4.345404 1.702119 12.548219 0.218407 17.078964 3.739512 -11.368301 2.243543 -5.255041 -3.180158 14.282896 -0.826595 6.952504 -1e-06 -12.690617 -1e-06 15.998205 -17.991474 2.609682 1.665667 -1.955923 -2.878299 4.7278 -4.170591 4.993925 11.02053 2e-06 -2e-06 12.109058 -3.73572 -2.866787 1e-06 0.0 0.0 1.291986 -1.928552 -1.49809 14.800134 0.567468 3.865608 14.242579 -1.34174 -6.660661 19.631977 0.143927 -0.648246 49.591206 -0.49886 -6.431253 0.353029 -1.511152 -0.03194 20.222795 3.684313 2.31663 18.787277 5e-06 -2e-06 10.751632 -0.479868 1.397905 -1e-06 -0.0 -0.0 3.273808 0.305947 -0.580111 21.486818 11.830385 2.266134 8.16293 1e-06 -1e-06 18.399086 -3.798989 -4.94058 2e-06 0.0 -0.0 13.103326 10.599174 3.390802 -0.075997 -0.161775 9.628119 -14.286063 -1.581575 -4.925908 1.583522 -2.006112 -0.150198 0.0 -0.0 2e-06 -11.084332 -14.913392 8.924519 -0.041174 -0.07753 3.333869 11.369733 -5.711035 -3.749758 -1.424686 0.992754 1.057506 -0.0 -0.0 -1e-06 
0.0 0.0 0.0 0.0 -0.0 0.0 -0.220136 98.740372 0.072833 -1.032931 -0.515704 -5.728194 -0.931839 0.233871 0.008274 -0.817197 0.228404 -4.798494 -0.953085 -1.474629 10.433161 17.789288 -4.181718 5.165663 -0.685653 -0.045818 -3.825943 6.15077 -2.828226 -5.271034 7.5e-05 -2.3e-05 6e-06 -0.072765 0.076254 -0.020116 0.672821 -3.618433 -10.701423 -0.804945 3.767418 -10.730906 -16.594152 -5.961738 14.862509 -53.791595 -12.897848 32.365143 0.274202 -24.283569 -0.102752 -3.376117 -2.863908 -4.837484 -5.882111 9.86129 0.70259 -10.936875 -0.360573 7.156205 -0.0 8.774827 -2e-06 -15.979894 18.261948 5.978402 -1.844034 2.498506 -2.507278 -10.163604 4.678948 4.621108 -20.976034 -1e-06 -1e-06 -21.226297 2.4517 -3.594005 1e-06 -5e-06 -2e-06 -1.362682 2.240799 -0.746325 -21.334925 0.584912 3.008321 -13.821221 -0.0 -0.0 -23.887182 -0.249079 -0.839488 -59.687 2.427316 -1.430611 -0.294024 1.679688 0.833255 -14.218215 0.093216 1.300582 -34.212067 -0.287562 0.967165 -20.033222 0.964537 1.212838 1e-06 1e-06 0.0 -3.440389 0.788233 0.501656 -15.928194 -3.167309 2.999707 -6.338829 -1e-06 0.0 -18.123457 3.648183 -4.905674 -3e-06 1e-06 -1e-06 16.859304 9.815153 15.186354 46.38179 5.933444 -8.801596 1.303527 12.345491 0.181624 16.053991 1.661899 -14.219425 2.243542 -5.255038 -3.180158 14.282894 -0.826595 6.952503 -2e-06 -12.690609 1e-06 16.00379 -17.994743 2.788804 1.665666 -1.955921 -2.878299 4.727799 -4.170588 4.993925 11.020529 3e-06 -2e-06 12.109053 -3.735717 -2.866784 -0.0 0.0 -0.0 1.291987 -1.92855 -1.498089 14.800132 0.567467 3.865607 14.242577 -1.341737 -6.660659 19.631971 0.143926 -0.648246 50.082764 -0.511283 -6.252603 0.353029 -1.511151 -0.03194 20.222797 3.68431 2.316629 18.787279 4e-06 -2e-06 10.751629 -0.479869 1.397905 -1e-06 0.0 0.0 3.273807 0.305948 -0.580111 21.486816 11.830377 2.266131 8.16293 1e-06 -1e-06 18.399088 -3.798986 -4.940577 2e-06 0.0 -0.0 13.170179 10.913724 3.633222 -0.099826 -0.218866 9.250813 -14.269303 -1.558117 -4.797227 1.58495 -2.039935 -0.260828 0.0 0.0 2e-06 -11.007523 -14.743519 9.195803 -0.059988 -0.102734 2.753824 11.291698 -5.678352 -3.449776 -1.429875 0.959086 1.051026 -0.0 -0.0 -1e-06 
0.0 0.0 0.0 0.0 -0.0 0.0 -0.177797 98.743187 0.131412 -1.020953 -0.650495 -5.707925 -1.021832 0.21619 0.01571 -0.81525 0.252588 -4.78741 -1.028971 -1.426366 10.347889 18.21789 -4.259737 4.92279 -0.767295 -0.330102 -3.851858 6.051411 -3.208267 -5.060735 7.6e-05 -2.3e-05 6e-06 -0.07038 0.05985 -0.021197 0.674248 -3.631754 -10.708415 -0.801189 3.746249 -10.739558 -16.468683 -6.103341 14.859305 -54.250824 -12.575551 31.734221 0.325078 -24.085098 -0.185568 -3.223984 -2.751217 -5.444714 -5.882105 9.861286 0.702593 -10.936872 -0.360577 7.156208 2e-06 8.774828 0.0 -16.008011 18.253202 5.92815 -1.844032 2.498505 -2.507278 -10.163601 4.678945 4.62111 -20.976027 -8e-06 5e-06 -21.226292 2.451694 -3.593997 2e-06 -6e-06 -2e-06 -1.362681 2.240798 -0.746324 -21.334917 0.584905 3.008324 -13.821217 -4e-06 3e-06 -23.887175 -0.249082 -0.839479 -59.625298 2.441915 -1.48488 -0.294025 1.679688 0.833256 -14.21821 0.093212 1.300581 -34.212063 -0.28757 0.967174 -20.033215 0.964535 1.212848 1e-06 -0.0 -1e-06 -3.440389 0.788232 0.501656 -15.928191 -3.167314 2.999708 -6.338827 -3e-06 1e-06 -18.123447 3.64818 -4.905669 -3e-06 1e-06 -2e-06 16.808847 9.962012 14.775443 43.400063 6.171787 -14.482477 0.942968 13.090639 0.176364 13.833895 -0.531648 -18.616058 2.243542 -5.255036 -3.180156 14.28289 -0.826595 6.952499 -2e-06 -12.6906 1e-06 15.852613 -18.026262 3.094435 1.665667 -1.955922 -2.878298 4.727799 -4.170587 4.993922 11.020526 2e-06 -2e-06 12.109053 -3.735714 -2.866784 -0.0 0.0 0.0 1.291986 -1.928549 -1.498088 14.800125 0.567468 3.865605 14.242569 -1.341736 -6.660656 19.631964 0.143926 -0.648246 50.462421 -0.514632 -6.080632 0.353028 -1.511149 -0.03194 20.222786 3.684308 2.316628 18.78727 5e-06 -2e-06 10.751626 -0.479869 1.397905 -1e-06 0.0 1e-06 3.273807 0.305946 -0.580111 21.486813 11.830371 2.26613 8.162926 2e-06 -2e-06 18.399078 -3.798982 -4.940576 4e-06 1e-06 -1e-06 13.189793 11.237407 3.738443 -0.096044 -0.270964 9.184873 -14.191253 -1.667222 -4.7956 1.588295 -2.043497 -0.341799 0.0 -0.0 2e-06 -11.048792 -14.604659 9.230034 -0.048246 -0.106433 2.650176 11.379648 -5.609353 -3.373946 -1.431359 0.981485 1.027351 -0.0 0.0 -1e-06 
0.0 0.0 0.0 0.0 -0.0 0.0 -0.134303 98.728096 0.186228 -1.016886 -0.811043 -5.722682 -1.103069 0.198525 0.043249 -0.799848 0.301951 -4.782783 -1.070311 -1.369357 10.270036 18.553789 -4.407515 4.763495 -0.818904 -0.545186 -3.871355 5.928493 -3.502373 -4.835457 7.6e-05 -2.2e-05 6e-06 -0.072564 0.0402 -0.027621 0.673847 -3.646441 -10.724812 -0.804599 3.720177 -10.759489 -16.3438 -6.183407 14.882523 -54.720909 -12.279593 31.195103 0.418147 -23.868494 -0.246715 -2.998869 -2.656826 -6.175395 -5.882109 9.861289 0.702591 -10.936878 -0.360574 7.156209 1e-06 8.77483 -0.0 -15.950901 18.207775 5.923042 -1.844034 2.498505 -2.507277 -10.163605 4.678947 4.62111 -20.976034 -4e-06 4e-06 -21.226299 2.451697 -3.593999 1e-06 -5e-06 -1e-06 -1.362682 2.240798 -0.746324 -21.334925 0.58491 3.008323 -13.82122 -1e-06 3e-06 -23.887182 -0.249081 -0.839484 -59.618774 2.442776 -1.509501 -0.294026 1.679689 0.833256 -14.218217 0.093214 1.30058 -34.212067 -0.287566 0.967169 -20.033222 0.964536 1.212844 1e-06 -0.0 0.0 -3.44039 0.788234 0.501656 -15.928194 -3.167311 2.999707 -6.33883 -1e-06 -1e-06 -18.123457 3.648183 -4.905673 -2e-06 1e-06 -1e-06 16.523308 10.132179 14.254387 40.47419 6.332928 -20.573723 0.440376 14.832455 0.147654 10.959735 -2.663225 -23.945148 2.243542 -5.255037 -3.180158 14.282894 -0.826596 6.952503 -1e-06 -12.690603 2e-06 15.523434 -17.971033 3.382471 1.665666 -1.955922 -2.878299 4.727799 -4.170588 4.993926 11.020527 3e-06 -1e-06 12.109053 -3.735716 -2.866786 -1e-06 -0.0 0.0 1.291987 -1.928548 -1.498089 14.800132 0.567467 3.86561 14.242576 -1.341736 -6.66066 19.631969 0.143925 -0.648248 50.61459 -0.54673 -5.913821 0.353029 -1.511151 -0.03194 20.222797 3.684309 2.316631 18.787275 4e-06 -1e-06 10.75163 -0.479869 1.397906 -0.0 2e-06 0.0 3.273806 0.305946 -0.580111 21.486814 11.83037 2.266132 8.162928 1e-06 -0.0 18.399086 -3.798985 -4.940576 4e-06 -0.0 -1e-06 13.212937 11.500768 3.771912 -0.083916 -0.317456 9.346105 -14.108328 -1.719239 -4.914666 1.592556 -2.024898 -0.444677 0.0 0.0 2e-06 -11.081112 -14.458961 9.207603 -0.03394 -0.099861 2.736844 11.509423 -5.524806 -3.441236 -1.430604 1.011959 0.935979 0.0 0.0 -1e-06 
0.0 0.0 0.0 0.0 -0.0 0.0 -0.092621 98.702759 0.248729 -1.003195 -0.994682 -5.75637 -1.164942 0.206121 0.080304 -0.78441 0.363018 -4.775224 -1.118124 -1.320199 10.157838 18.845787 -4.611392 4.685712 -0.839524 -0.714965 -3.857248 5.794339 -3.724868 -4.625141 7.5e-05 -2.2e-05 6e-06 -0.073735 0.034433 -0.032422 0.675074 -3.645841 -10.726657 -0.807402 3.706698 -10.762437 -16.174635 -6.207187 14.937308 -55.178429 -12.055367 30.892065 0.496013 -23.615292 -0.270375 -2.77543 -2.526342 -6.803356 -5.882109 9.861285 0.70259 -10.936873 -0.360574 7.156205 -1e-06 8.774822 -0.0 -15.879485 18.148298 5.944993 -1.844034 2.498504 -2.507277 -10.163601 4.678944 4.621108 -20.976027 -2e-06 -1e-06 -21.22629 2.451697 -3.594 2e-06 -5e-06 -1e-06 -1.362682 2.240797 -0.746325 -21.334915 0.584911 3.00832 -13.821215 -2e-06 -0.0 -23.887173 -0.24908 -0.839484 -59.668499 2.454742 -1.479699 -0.294025 1.679687 0.833256 -14.21821 0.093216 1.300579 -34.212051 -0.287563 0.967163 -20.033216 0.964535 1.21284 2e-06 1e-06 0.0 -3.44039 0.788234 0.501657 -15.928189 -3.167309 2.999704 -6.338826 -1e-06 -2e-06 -18.123451 3.648181 -4.905673 -3e-06 1e-06 -1e-06 15.929209 10.396238 13.705976 37.504761 6.526543 -26.313456 -0.194355 17.306158 0.049896 7.918399 -5.071618 -28.917511 2.24354 -5.255036 -3.180156 14.282887 -0.826594 6.952501 -2e-06 -12.690604 2e-06 15.21979 -17.704735 3.544709 1.665666 -1.955921 -2.878297 4.727797 -4.170587 4.993924 11.020524 3e-06 -1e-06 12.10905 -3.735714 -2.866781 0.0 1e-06 -0.0 1.291985 -1.928549 -1.498087 14.800125 0.56747 3.865606 14.242569 -1.341737 -6.660656 19.631968 0.143927 -0.648245 50.551006 -0.6051 -5.724181 0.353029 -1.511151 -0.03194 20.222788 3.684311 2.31663 18.78727 5e-06 -1e-06 10.751627 -0.479868 1.397906 1e-06 1e-06 -0.0 3.273804 0.305947 -0.58011 21.486809 11.830376 2.266129 8.162925 1e-06 -2e-06 18.399076 -3.798986 -4.940575 3e-06 -2e-06 -1e-06 13.218503 11.663179 3.801066 -0.076868 -0.345799 9.577041 -13.997888 -1.659912 -5.102178 1.597442 -2.000318 -0.503765 -0.0 -0.0 2e-06 -11.129315 -14.331948 9.13087 -0.023969 -0.0805 2.953104 11.68467 -5.39908 -3.593181 -1.428789 1.026014 0.853881 -0.0 0.0 -1e-06 
